<?xml version="1.0" encoding="UTF-8"?>
<svg version="1.1" xmlns="http://www.w3.org/2000/svg" width="4642" height="222">
<path d="M0 0 C1.31100487 -0.00419243 2.62200974 -0.00838485 3.97274203 -0.01270432 C7.61152313 -0.02390996 11.25006265 -0.01649052 14.88883709 -0.00601959 C18.86747304 0.00208951 22.84607514 -0.00730089 26.82470769 -0.01441878 C33.83469156 -0.02454649 40.84460548 -0.02348494 47.85459074 -0.01520955 C58.37931438 -0.00284789 68.90398141 -0.00786917 79.42870643 -0.01623865 C97.44641164 -0.03005731 115.46409164 -0.02956587 133.48179918 -0.0214605 C151.8475857 -0.0132581 170.21335556 -0.01163397 188.57914301 -0.01794164 C189.74242195 -0.01833701 190.90570089 -0.01873238 192.10423071 -0.01913974 C198.04350592 -0.0211872 203.9827811 -0.02333855 209.92205626 -0.02552449 C253.34038065 -0.0412739 296.75869573 -0.04214132 340.17702193 -0.03554526 C384.19887365 -0.02890094 428.22071826 -0.02875714 472.24256987 -0.0365924 C473.62975205 -0.03683616 475.01693422 -0.03707993 476.44615222 -0.03733108 C489.15836849 -0.0395654 501.87058474 -0.04186489 514.58280098 -0.04424292 C546.46330929 -0.05019744 578.34381773 -0.05508851 610.22432632 -0.05925563 C611.68538514 -0.05944699 613.14644395 -0.05963834 614.65177728 -0.05983549 C686.71838172 -0.06917051 758.78498532 -0.06698689 830.8515901 -0.06354705 C833.19533217 -0.06343537 833.19533217 -0.06343537 835.58642255 -0.06332143 C841.91215228 -0.0630196 848.237882 -0.0627169 854.56361173 -0.0624135 C872.03663696 -0.06157668 889.50966219 -0.06077076 906.98268742 -0.06000391 C908.5601832 -0.05993403 910.13767898 -0.05986416 911.76297766 -0.05979216 C984.81648471 -0.05658827 1057.86999102 -0.05972819 1130.92349795 -0.0641917 C1138.88947683 -0.06467554 1146.85545571 -0.06514555 1154.82143458 -0.06561583 C1167.60696171 -0.06637177 1180.39248883 -0.06713001 1193.17801595 -0.06789275 C1195.55615857 -0.06803458 1195.55615857 -0.06803458 1197.98234447 -0.06817927 C1205.99952763 -0.06865798 1214.0167108 -0.06913942 1222.03389396 -0.06962538 C1296.85781721 -0.07416005 1371.68174048 -0.07765831 1446.50566382 -0.08012858 C1448.13603653 -0.08018269 1449.76640925 -0.0802368 1451.4461872 -0.08029255 C1557.05812901 -0.08377576 1662.67007018 -0.08241796 1768.28201193 -0.07773868 C1771.68941538 -0.07758879 1775.09681883 -0.07743898 1778.50422228 -0.07728926 C1816.1224528 -0.07563264 1853.74068332 -0.07388099 1891.35891383 -0.07209625 C1893.05699348 -0.07201575 1894.75507312 -0.07193525 1896.50460973 -0.07185231 C1901.65245804 -0.07160825 1906.80030635 -0.07136406 1911.94815466 -0.0711198 C1913.64761553 -0.07103917 1915.3470764 -0.07095854 1917.09803609 -0.07087546 C1925.68503599 -0.07046778 1934.27203589 -0.07005868 1942.8590358 -0.06964711 C2113.6886556 -0.0614675 2284.51827181 -0.05959726 2589.59159787 -0.09008842 C2646.06365889 -0.09622755 2702.53571991 -0.10230989 2759.00778098 -0.10805789 C2760.69364001 -0.10822991 2762.37949903 -0.10840192 2764.1164447 -0.10857915 C2869.67043983 -0.11933638 2975.22443425 -0.12522476 3080.77842993 -0.12561503 C3082.40827955 -0.12562155 3084.03812917 -0.12562807 3085.71736817 -0.12563478 C3158.89625241 -0.12591626 3232.07513659 -0.12492531 3305.2540208 -0.12274472 C3330.84786713 -0.12198521 3356.44171346 -0.12131124 3382.03555979 -0.12066456 C3388.4029715 -0.12050333 3394.77038321 -0.12033522 3401.13779492 -0.12016155 C3474.19397786 -0.11818601 3547.25015915 -0.11900669 3620.3063416 -0.12846628 C3621.88276212 -0.1286699 3623.45918265 -0.12887351 3625.0833735 -0.1290833 C3650.44343715 -0.13237102 3675.80350077 -0.13586515 3701.16356438 -0.13936454 C3773.12861269 -0.14927988 3845.09365848 -0.15694345 3917.05870742 -0.15019802 C3919.24756006 -0.14999388 3919.24756006 -0.14999388 3921.48063193 -0.14978563 C3953.31104821 -0.14677245 3985.14146423 -0.14261784 4016.97188021 -0.1373413 C4029.66535613 -0.1352531 4042.35883208 -0.1333083 4055.05230803 -0.1314067 C4056.43697735 -0.13119521 4057.82164666 -0.13098373 4059.24827566 -0.13076584 C4103.21585428 -0.12411779 4147.18341983 -0.12975943 4191.15099681 -0.14245806 C4234.42186429 -0.15490243 4277.69271245 -0.1552521 4320.96357884 -0.13783439 C4326.88277407 -0.1354533 4332.80196935 -0.13321159 4338.72116467 -0.13105325 C4340.45944402 -0.13041126 4340.45944402 -0.13041126 4342.23284012 -0.1297563 C4360.54333889 -0.12335833 4378.85380692 -0.13033972 4397.16430142 -0.14297656 C4415.05635609 -0.1550526 4432.94836198 -0.15304932 4450.84041288 -0.13570907 C4461.29042249 -0.12600767 4471.74029238 -0.12724977 4482.19029279 -0.1446714 C4489.10610556 -0.15511824 4496.02181164 -0.15116504 4502.93761395 -0.13531714 C4506.8551169 -0.12674568 4510.77234215 -0.12438979 4514.6898304 -0.13981383 C4518.89590842 -0.15623979 4523.10131895 -0.14171256 4527.30739236 -0.1241985 C4528.50950779 -0.1338939 4529.71162323 -0.1435893 4530.9501664 -0.1535785 C4545.05994139 -0.0320622 4557.10556659 5.04549303 4567.52884001 14.56340417 C4613.05828683 63.37622456 4580.77884001 147.62545876 4580.77884001 214.37590417 C3051.55884001 214.37590417 1522.33884001 214.37590417 -53.22115999 214.37590417 C-53.22115999 29.16294685 -53.22115999 29.16294685 -39.03365999 13.62590417 C-27.75492096 3.10582472 -14.9638476 -0.08909983 0 0 Z " fill="#E7B521" transform="translate(57.22115998715162,3.62409583106637)"/>
<path d="M0 0 C6.56620576 4.71516109 9.93335045 11.18291124 11.37890625 19.06640625 C11.78672533 25.57835607 9.28338273 31.82022299 5.52734375 37.05078125 C0.37443304 42.73969213 -6.00570319 45.50947232 -13.5625 46.4375 C-22.14262816 45.34548369 -28.13729935 42.45958194 -34 36 C-38.28690483 30.06523868 -39.87531887 24.29015572 -39 17 C-37.15365823 9.89269643 -34.01445723 4.3189531 -28 0 C-18.14289836 -5.41899388 -9.85710164 -5.41899388 0 0 Z " fill="#3A3A3A" transform="translate(239,90)"/>
<path d="M0 0 C5.75102163 6.07965144 8.62015303 13.24147507 8.53515625 21.546875 C7.64823306 28.60239884 3.65822601 34.88381704 -1.8125 39.3125 C-8.41197695 43.69228831 -14.03325635 45.44548122 -21.984375 43.88671875 C-29.50632471 41.77279151 -35.39147146 37.35652193 -39.25 30.5 C-42.21355424 23.64678082 -42.76071507 16.54073558 -40.0078125 9.546875 C-36.15680317 2.34825625 -31.02627435 -2.52532159 -23.25 -5.09765625 C-14.5334839 -7.2069414 -7.56206516 -4.53723909 0 0 Z " fill="#3A3A3A" transform="translate(155.8125,91.6875)"/>
<path d="M0 0 C5.85064135 4.4897313 9.34739401 10.50578359 10.52734375 17.77734375 C10.90563338 25.73164998 8.96863298 32.44254212 3.58984375 38.44140625 C-1.58911518 43.03277881 -7.33406325 45.53255827 -14.140625 46.06640625 C-21.2021823 45.60335331 -27.18449883 43.59209005 -32.37890625 38.6640625 C-37.71161689 32.40507458 -39.82333124 25.9723644 -39.43359375 17.77734375 C-38.25364401 10.50578359 -34.75689135 4.4897313 -28.90625 0 C-19.60724471 -5.6351972 -9.29900529 -5.6351972 0 0 Z " fill="#3A3A3A" transform="translate(322.953125,90.18359375)"/>
</svg>
